<?xml version="1.0" standalone="no"?>
<!DOCTYPE svg PUBLIC "-//W3C//DTD SVG 20010904//EN"
 "http://www.w3.org/TR/2001/REC-SVG-20010904/DTD/svg10.dtd">
<svg version="1.0" xmlns="http://www.w3.org/2000/svg"
 width="709.000000pt" height="787.000000pt" viewBox="0 0 709.000000 787.000000"
 preserveAspectRatio="xMidYMid meet">

<g transform="translate(0.000000,787.000000) scale(0.100000,-0.100000)"
fill="#00875f" stroke="none">
<path d="M3399 7855 c-90 -18 -169 -51 -281 -117 -180 -107 -485 -286 -633
-373 -82 -48 -170 -100 -195 -115 -25 -15 -90 -53 -145 -85 -55 -32 -136 -80
-180 -106 -44 -26 -361 -213 -705 -414 -344 -202 -679 -400 -745 -439 -66 -39
-132 -77 -147 -84 -42 -22 -142 -117 -194 -185 -55 -72 -115 -194 -141 -287
-17 -62 -18 -146 -18 -1715 0 -1550 1 -1654 18 -1715 22 -81 74 -191 125 -267
96 -142 61 -119 1628 -1039 797 -468 1467 -858 1490 -867 161 -62 380 -61 550
3 30 11 514 290 1076 621 563 331 1212 712 1442 848 339 198 433 259 489 311
107 100 182 221 229 370 l23 75 0 1660 0 1660 -23 75 c-47 149 -130 281 -238
379 -44 40 -414 262 -1469 883 -775 457 -1441 845 -1480 864 -38 18 -97 41
-130 50 -81 22 -262 27 -346 9z m1601 -2860 l0 -625 -625 0 -625 0 0 625 0
625 625 0 625 0 0 -625z m-2500 105 l0 -310 -310 0 -310 0 0 310 0 310 310 0
310 0 0 -310z m834 -1166 c8 -20 8 -1608 0 -1628 -6 -14 -88 -16 -835 -16
l-829 0 0 830 0 830 829 0 c747 0 829 -2 835 -16z m1460 -216 c8 -30 8 -772 0
-792 -5 -14 -52 -16 -420 -16 l-414 0 0 415 0 415 414 0 414 0 6 -22z"/>
</g>
</svg>
